<svg t="1716569238547" class="icon" viewBox="0 0 1024 1024" version="1.1" xmlns="http://www.w3.org/2000/svg" p-id="1914" width="16" height="16"><path d="M689.086719 242.37826 334.912257 242.37826c-148.913565 0-269.62174 120.708176-269.62174 269.62174s120.708176 269.62174 269.62174 269.62174l354.173438 0c148.913565 0 269.62174-120.708176 269.62174-269.62174S838.000284 242.37826 689.086719 242.37826L689.086719 242.37826zM689.401898 756.12402c-135.137817 0-244.691955-109.555162-244.691955-244.691955 0-135.13884 109.555162-244.682745 244.691955-244.682745 135.13884 0 244.682745 109.544929 244.682745 244.682745C934.085666 646.568858 824.540737 756.12402 689.401898 756.12402L689.401898 756.12402zM689.401898 756.12402" fill="#ffffff" p-id="1915"></path><path d="M633.0034 382.728798c-0.873903 13.723559-1.296529 27.457352-1.296529 41.159422 0 13.734816 0.421602 29.584806 1.296529 47.594995l-59.179844 0-2.560312 46.310745 63.014172 0c-1.727341 12.005428-3.01159 24.434505-3.854794 37.293371l-5.1503 60.45386c-1.727341 17.146519-9.215896 27.436886-22.50762 30.881334-13.301957 3.411703-26.803459 5.982248-40.506553 7.708566-1.737574-11.153014-4.728698-21.86396-9.005095-32.154327 19.705807 0.86367 32.57593 0.642636 38.579667-0.653893 5.991458-1.274016 9.425673-7.065929 10.299577-17.356296l5.129834-64.309678-61.740156 0c3.423983-27.446096 5.1503-57.021691 5.1503-88.753393l57.884338 0L608.556615 403.308509c-28.299533 0-50.606585 0.442068-66.889433 1.285273l0-23.139c13.712303 0.852414 27.01426 1.274016 39.875173 1.274016L633.0034 382.728798zM724.316082 663.135162c0.842181-19.736507 1.295506-38.5899 1.295506-56.588833L675.436838 606.54633c-13.722536 0.853437-25.719778 1.727341-36.008099 2.559289l0-24.424272c10.289344 0.853437 22.285562 1.727341 36.008099 2.559289l50.17475 0L725.611587 552.516786l-70.744227 0c0.842181-21.421892 1.274016-44.581358 1.274016-69.458955 0-24.856108-0.431835-46.299489-1.274016-64.309678l93.894484 0c7.719822-18.010189 14.575973-36.440957 20.578688-55.30356 9.426697 4.296863 19.294438 8.151657 29.574572 11.574616-8.573259 9.43693-16.714683 24.013927-24.424272 43.728944l45.014216 0c-0.86367 16.293081-1.285273 38.158065-1.285273 65.594951 0 27.457352 0.421602 50.163493 1.285273 68.173682l-70.744227 0 0 34.724873 43.728944 0c11.132548 0 26.151613-0.420579 45.024449-1.284249l0 21.86396c-17.166985-0.842181-31.743982-1.274016-43.7402-1.274016l-45.013193 0c0 19.736507 0.420579 38.578644 1.284249 56.588833L724.316082 663.136186zM680.587138 372.449687l23.160489-11.585873c5.982248 11.154038 11.985986 25.719778 17.998933 43.729967-7.719822 2.579755-16.293081 6.012947-25.730011 10.289344C692.59359 399.453714 687.443289 385.299343 680.587138 372.449687zM725.611587 474.052736l0-36.019355-45.024449 0 0 36.019355L725.611587 474.052736zM725.611587 531.938098l0-37.304627-45.024449 0 0 37.304627L725.611587 531.938098zM795.060309 474.052736l0-36.019355-46.298466 0 0 36.019355L795.060309 474.052736zM795.060309 531.938098l0-37.304627-46.298466 0 0 37.304627L795.060309 531.938098z" fill="#ffffff" p-id="1916"></path></svg>