<svg t="1716569254685" class="icon" viewBox="0 0 1024 1024" version="1.1" xmlns="http://www.w3.org/2000/svg" p-id="2125" width="16" height="16"><path d="M334.912257 242.37826c-148.913565 0-269.62174 120.708176-269.62174 269.62174s120.708176 269.62174 269.62174 269.62174l354.173438 0c148.913565 0 269.62174-120.708176 269.62174-269.62174S838.000284 242.37826 689.086719 242.37826L334.912257 242.37826 334.912257 242.37826zM334.596056 756.125043c-135.137817 0-244.681722-109.556185-244.681722-244.692978s109.544929-244.682745 244.681722-244.682745c135.137817 0 244.692978 109.545952 244.692978 244.682745S469.733872 756.125043 334.596056 756.125043L334.596056 756.125043zM334.596056 756.125043" fill="#ffffff" p-id="2126"></path><path d="M277.817911 382.728798c-0.873903 13.723559-1.295506 27.457352-1.295506 41.159422 0 13.734816 0.421602 29.584806 1.295506 47.594995l-59.179844 0-2.559289 46.310745 63.014172 0c-1.727341 12.005428-3.012613 24.434505-3.854794 37.293371l-5.1503 60.454884c-1.727341 17.145495-9.214872 27.435862-22.506597 30.880311-13.302981 3.411703-26.804483 5.982248-40.506553 7.708566-1.737574-11.153014-4.729721-21.86396-9.005095-32.154327 19.705807 0.86367 32.57593 0.642636 38.579667-0.652869 5.992481-1.27504 9.425673-7.066953 10.3006-17.35732l5.128811-64.309678-61.739133 0c3.422959-27.446096 5.1503-57.021691 5.1503-88.753393l57.884338 0L253.374196 403.308509c-28.299533 0-50.606585 0.442068-66.889433 1.285273l0-23.139c13.712303 0.853437 27.015284 1.274016 39.874149 1.274016L277.817911 382.728798zM369.131617 663.135162c0.842181-19.736507 1.295506-38.588877 1.295506-56.588833l-50.175773 0c-13.723559 0.853437-25.718755 1.727341-36.009122 2.559289l0-24.424272c10.290367 0.853437 22.285562 1.727341 36.009122 2.559289l50.175773 0L370.427122 552.516786l-70.744227 0c0.842181-21.421892 1.27504-44.581358 1.27504-69.458955 0-24.856108-0.431835-46.298466-1.27504-64.309678l93.894484 0c7.719822-18.010189 14.575973-36.439934 20.578688-55.30356 9.426697 4.296863 19.294438 8.151657 29.574572 11.574616-8.573259 9.437953-16.714683 24.013927-24.424272 43.728944l45.014216 0c-0.86367 16.294105-1.285273 38.158065-1.285273 65.594951 0 27.457352 0.421602 50.163493 1.285273 68.173682l-70.744227 0 0 34.724873 43.728944 0c11.132548 0 26.151613-0.420579 45.024449-1.284249l0 21.86396c-17.166985-0.842181-31.743982-1.274016-43.7402-1.274016l-45.013193 0c0 19.73753 0.420579 38.578644 1.284249 56.588833L369.131617 663.136186zM325.40165 372.449687l23.160489-11.584849c5.982248 11.153014 11.984962 25.718755 17.998933 43.728944-7.719822 2.579755-16.293081 6.012947-25.730011 10.289344C337.408101 399.453714 332.257801 385.299343 325.40165 372.449687zM370.427122 474.052736l0-36.019355-45.025473 0 0 36.019355L370.427122 474.052736zM370.427122 531.938098l0-37.304627-45.025473 0 0 37.304627L370.427122 531.938098zM439.874821 474.052736l0-36.019355-46.298466 0 0 36.019355L439.874821 474.052736zM439.874821 531.938098l0-37.304627-46.298466 0 0 37.304627L439.874821 531.938098z" fill="#ffffff" p-id="2127"></path></svg>