<svg class="icon" viewBox="0 0 1024 1024" version="1.1" xmlns="http://www.w3.org/2000/svg"
    width="16" height="16">
    <path
        d="M924.85 337.58A449.38 449.38 0 1 0 960.08 512a446.56 446.56 0 0 0-35.23-174.42zM128.08 512c0-211.7 172.22-383.92 383.92-383.92a382.24 382.24 0 0 1 247.35 90.51L218.59 759.35A382.24 382.24 0 0 1 128.08 512zM512 895.92a382.25 382.25 0 0 1-248.22-91.25l540.89-540.89A382.25 382.25 0 0 1 895.92 512c0 211.7-172.22 383.92-383.92 383.92z"
        fill="#d81e06"></path>
</svg>