<svg t="1714892417387" class="icon" viewBox="0 0 1024 1024" version="1.1" xmlns="http://www.w3.org/2000/svg" p-id="4449" width="16" height="16"><path d="M337.554 231.757c-1.267 0.713-2.346 1.17-3.25 1.853-7.791 5.86-15.922 11.336-23.255 17.725-38.192 33.26-67.039 73.562-88.438 119.272-25.712 54.918-38.851 113.042-42.942 173.31-2.5 36.83-2.147 73.658 1.646 110.42 4.618 44.779 14.695 88.136 33.925 129.042 19.742 41.99 47.787 77.26 85.472 104.628 33.264 24.16 70.437 39.514 110.14 49.355 18.245 4.528 36.565 6.797 55.444 6.554 41.322-0.528 82.657-0.072 123.988-0.244 7.812-0.032 15.737-0.486 23.414-1.837 12.636-2.231 25.631-3.968 37.533-8.431 17.184-6.453 33.918-14.411 50.133-23.053 33.993-18.11 64.165-41.422 89.936-70.15 52.695-58.75 77.917-128.508 81.793-206.562 0.605-12.124-0.302-24.362-1.082-36.51-1.572-24.551-5.86-48.665-13.01-72.217-8.378-27.596-17.031-55.107-25.338-82.724-11.927-39.648-11.91-79.167 0.882-118.765 8.407-26.022 15.818-52.368 23.668-78.566 0.408-1.36 0.722-2.74 1.159-4.422-1.504 0.08-2.573 0.075-3.621 0.2-22.348 2.673-43.82 8.63-64.447 17.553-22.712 9.83-43.273 22.977-61.018 40.34-22.977 22.483-37.408 49.764-45.858 80.582-8.696 31.733-12.036 63.817-7.802 96.547 0.44 3.411 1.095 6.792 1.83 11.298-1.34-1.519-1.973-2.174-2.535-2.887-26.564-33.565-50.409-68.934-68.83-107.631a243.857 243.857 0 0 1-15.476-42.228c-10.302-38.936-9.224-78.357-2.261-117.72 6.809-38.474 18.74-75.413 34.765-110.987 6.108-13.56 13.312-26.627 20.015-39.922h-18.702c-0.559 0.324-1.079 0.75-1.675 0.957-32.503 11.029-63.183 25.8-91.496 45.25-27.11 18.626-50.958 40.697-70.353 67.457-13.785 19.025-23.539 40.102-32.914 61.476-12.707 28.976-23.519 58.566-30.374 89.486-8.726 39.342-12.711 79.416-18.023 119.286-1.132 8.528-2.227 17.065-3.435 26.282-2.19-1.392-4.05-2.101-5.253-3.414-5.29-5.752-11.213-11.151-15.404-17.65-11.508-17.842-17.969-37.826-22.6-58.421-10.191-45.304-10.665-90.792-2.325-136.402 1.7-9.27 3.907-18.448 5.974-28.13z m3.989 272.44c5.37 5.46 11.676 10.7 18.559 13.793 9.717 4.366 20.014 7.84 31.372 4.97 8.612-2.174 17.077-4.205 23.635-10.588 5.174-5.042 10.361-10.333 11.695-17.764a1670.37 1670.37 0 0 0 7.799-47.288c2.735-18.223 4.925-36.531 7.713-54.745 2.575-16.806 4.57-33.811 8.763-50.232 4.253-16.646 10.63-32.77 16.565-48.948 3.77-10.264 8.524-20.165 12.685-30.29 11.414-27.768 17.9-51.962 40.267-72.044 6.802-6.108 23.987-11.852 31.618-17.247-2.308 9.696-4.543 19.413-6.938 29.09-6.324 25.528-10.113 51.42-10.478 77.718-0.393 28.328 3.397 56.176 11.808 83.258 3.93 12.653 8.098 25.293 13.273 37.469 4.474 10.533 10.053 20.678 15.977 30.491 9.469 15.688 19.24 31.224 29.61 46.327 10.016 14.587 20.51 28.901 31.704 42.59 4.405 5.383 10.733 9.305 17.986 11.53 11.367 3.493 22.31 3.666 33.69 0.045 6.846-2.175 12.14-6.304 17.035-10.942 8.983-8.516 10.425-20.395 12.736-31.742 0.361-1.778-0.393-3.816-0.765-5.707-3.693-18.792-3.905-37.615-1.674-56.64 1.542-13.144 4.153-25.937 8.672-38.325 6.52-17.887 15.478-34.357 29.609-47.46 6.097-5.656 12.757-10.698 19.16-16.021 0.318 0.296 0.638 0.593 0.954 0.889-1.659 6.973-3.292 13.957-4.987 20.922-4.933 20.262-7.308 40.869-4.089 61.483 2.96 18.95 7.054 37.796 11.932 56.352 5.795 22.053 12.327 43.956 19.69 65.536 8.515 24.96 12.415 50.553 13.051 76.707 0.32 13.248 0.161 26.585-1.032 39.767-1.655 18.227-4.39 36.39-10.601 53.748-8.84 24.711-19.694 48.483-34.781 70.082-13.246 18.968-29.403 35.27-46.876 50.349-18.248 15.744-38.922 27.607-60.378 38.204-9.568 4.727-19.28 9.369-29.345 12.833-7.838 2.7-16.265 3.95-24.535 5.07-14.431 1.958-28.906 4.097-43.428 4.746-21.142 0.95-42.346 0.817-63.52 0.786-8.123-0.013-16.269-0.761-24.36-1.599-28.2-2.92-55.932-7.994-81.893-19.977-13.2-6.093-26.333-12.409-39.098-19.349-12.191-6.628-22.872-15.52-32.473-25.52-8.386-8.735-16.89-17.483-24.223-27.083-9.8-12.83-17.69-26.947-23.738-41.998-4.266-10.608-8.944-21.078-12.649-31.881-6.244-18.207-9.776-37.019-12.215-56.155-3.774-29.562-5.078-59.192-4.277-88.914 0.373-13.79 1.902-27.547 2.863-41.326 1.378-19.72 4.241-39.233 8.959-58.414 4.341-17.642 9.704-34.993 17.053-51.67 4.101-9.3 7.935-18.72 12.184-27.949 2.527-5.486 5.627-10.705 8.815-16.689 1.73 9.973 2.888 19.477 5.095 28.73 3.647 15.295 7.285 30.658 12.182 45.582 6.885 20.956 18.124 39.68 33.644 55.44z" p-id="4450"></path></svg>