<svg xmlns="http://www.w3.org/2000/svg" xmlns:xlink="http://www.w3.org/1999/xlink" viewBox="0 0 24 24" width="24" height="24" style="width: 24px; height: 24px;"><path d="M13.08075 3.04047C13.08075 3.63735 12.5969 4.12121 12.00005 4.12121C11.40315 4.12121 10.9193 3.63735 10.9193 3.04047C10.9193 2.44358 11.40315 1.95972 12.00005 1.95972C12.5969 1.95972 13.08075 2.44358 13.08075 3.04047z" fill="currentColor"></path><path d="M11.80355 8.5354C11.80355 8.19023 12.08335 7.9104 12.42855 7.9104L14.5714 7.9104C14.9166 7.9104 15.1964 8.19023 15.1964 8.5354C15.1964 8.88058 14.9166 9.1604 14.5714 9.1604L12.42855 9.1604C12.08335 9.1604 11.80355 8.88058 11.80355 8.5354z" fill="currentColor"></path><path d="M12.10355 14.964C12.10355 14.6188 12.38335 14.339 12.72855 14.339L12.85715 14.339C12.98535 14.339 13.0893 14.23505 13.0893 14.10685L13.0893 7.24971C13.0893 6.90453 13.36915 6.62471 13.7143 6.62471C14.0595 6.62471 14.3393 6.90453 14.3393 7.24971L14.3393 14.10685C14.3393 14.92545 13.6757 15.589 12.85715 15.589L12.72855 15.589C12.38335 15.589 12.10355 15.30915 12.10355 14.964z" fill="currentColor"></path><path d="M15.08245 12.02505C15.18165 12.35565 14.994 12.7041 14.6634 12.8033L12.6082 13.41985C12.27755 13.51905 11.9291 13.33145 11.82995 13.0008C11.7307 12.6702 11.91835 12.32175 12.24895 12.22255L14.30425 11.60595C14.63485 11.5068 14.98325 11.69445 15.08245 12.02505z" fill="currentColor"></path><path d="M17.7857 7.1283C18.0894 7.1283 18.3357 7.37454 18.3357 7.6783L18.3357 11.53545C18.3357 11.8392 18.0894 12.08545 17.7857 12.08545C17.48195 12.08545 17.2357 11.8392 17.2357 11.53545L17.2357 7.6783C17.2357 7.37454 17.48195 7.1283 17.7857 7.1283z" fill="currentColor"></path><path d="M20.4025 7.40528C20.4349 7.74893 20.18265 8.05382 19.839 8.08626C18.2802 8.23345 17.3898 8.27892 15.8008 8.30325C15.45565 8.30853 15.17155 8.03302 15.1663 7.68789C15.161 7.34275 15.43655 7.05868 15.78165 7.0534C17.34035 7.02953 18.19795 6.98566 19.7215 6.8418C20.06515 6.80936 20.37005 7.06163 20.4025 7.40528z" fill="currentColor"></path><path d="M14.87855 9.82111C14.87855 9.51736 15.1248 9.27112 15.42855 9.27112L20.1428 9.27112C20.4466 9.27112 20.6928 9.51736 20.6928 9.82111C20.6928 10.1249 20.4466 10.3711 20.1428 10.3711L15.42855 10.3711C15.1248 10.3711 14.87855 10.1249 14.87855 9.82111z" fill="currentColor"></path><path d="M17.4719 9.88477C17.67335 10.1121 17.6524 10.4597 17.4251 10.6612L15.97455 11.9469C15.74725 12.1484 15.3996 12.1274 15.19815 11.90015C14.99665 11.6728 15.01755 11.3252 15.2449 11.12375L16.69545 9.838C16.9228 9.63652 17.2704 9.65745 17.4719 9.88477z" fill="currentColor"></path><path d="M18.09935 9.88477C18.30085 9.65745 18.6485 9.63652 18.87575 9.838L20.32635 11.12375C20.55365 11.3252 20.5746 11.6728 20.3731 11.90015C20.1716 12.1274 19.824 12.1484 19.5967 11.9469L18.14615 10.6612C17.91885 10.4597 17.8979 10.1121 18.09935 9.88477z" fill="currentColor"></path><path d="M15.97755 8.22865C16.26525 8.13126 16.57745 8.28556 16.6748 8.57328L16.911 9.27105L18.6605 9.27105L18.8966 8.57328C18.994 8.28556 19.3062 8.13126 19.5939 8.22865C19.88165 8.32603 20.03595 8.63821 19.93855 8.92594L19.44945 10.37105L16.122 10.37105L15.6329 8.92594C15.53545 8.63822 15.6898 8.32603 15.97755 8.22865z" fill="currentColor"></path><path d="M17.78565 15.4639C17.50955 15.4639 17.28565 15.24 17.28565 14.9639L17.28565 12.3924C17.28565 12.1163 17.50955 11.8924 17.78565 11.8924C18.0618 11.8924 18.28565 12.1163 18.28565 12.3924L18.28565 14.9639C18.28565 15.24 18.0618 15.4639 17.78565 15.4639z" fill="currentColor"></path><path d="M16.22635 12.90685C16.2087 13.11905 16.19285 13.3898 16.19285 13.67815C16.19285 13.96655 16.2087 14.23725 16.22635 14.4495C16.5938 14.47275 17.155 14.49965 17.7857 14.49965C18.41645 14.49965 18.97765 14.47275 19.34505 14.4495C19.36275 14.23725 19.3786 13.96655 19.3786 13.67815C19.3786 13.3898 19.36275 13.11905 19.34505 12.90685C18.97765 12.8836 18.4164 12.8567 17.7857 12.8567C17.155 12.8567 16.5938 12.8836 16.22635 12.90685zM16.02665 11.8176C16.40155 11.7918 17.0471 11.7567 17.7857 11.7567C18.52435 11.7567 19.16985 11.7918 19.54475 11.8176C20.0045 11.8492 20.3836 12.204 20.42875 12.6748C20.45265 12.92375 20.4786 13.2838 20.4786 13.67815C20.4786 14.07245 20.45265 14.43255 20.42875 14.68155C20.3836 15.15225 20.00455 15.5071 19.5448 15.53875C19.16995 15.5645 18.52435 15.59965 17.7857 15.59965C17.047 15.59965 16.4015 15.5645 16.02665 15.53875C15.5669 15.5071 15.1878 15.15225 15.14265 14.68145C15.11875 14.4325 15.09285 14.07245 15.09285 13.67815C15.09285 13.28385 15.11875 12.92385 15.14265 12.6748C15.1878 12.2041 15.5669 11.8492 16.02665 11.8176z" fill="currentColor"></path><path d="M15.2285 13.6782C15.2285 13.4021 15.4524 13.1782 15.7285 13.1782L19.8428 13.1782C20.1189 13.1782 20.3428 13.4021 20.3428 13.6782C20.3428 13.9544 20.1189 14.1782 19.8428 14.1782L15.7285 14.1782C15.4524 14.1782 15.2285 13.9544 15.2285 13.6782z" fill="currentColor"></path><path d="M3.44647 7.73206C3.44647 7.38688 3.7263 7.10706 4.07147 7.10706L10.0715 7.10706C10.41665 7.10706 10.6965 7.38688 10.6965 7.73206C10.6965 8.07723 10.41665 8.35705 10.0715 8.35705L4.07147 8.35705C3.7263 8.35705 3.44647 8.07723 3.44647 7.73206z" fill="currentColor"></path><path d="M4.08933 9.73533C4.08933 9.15347 4.56103 8.68176 5.1429 8.68176L9.00004 8.68176C9.5819 8.68176 10.05362 9.15347 10.05362 9.73533L10.05362 14.95425C10.05362 15.29945 9.77379 15.57925 9.42861 15.57925C9.08344 15.57925 8.80361 15.29945 8.80361 14.95425L8.80361 9.93177L5.33933 9.93177L5.33933 14.95425C5.33933 15.29945 5.0595 15.57925 4.71433 15.57925C4.36914 15.57925 4.08933 15.29945 4.08933 14.95425L4.08933 9.73533z" fill="currentColor"></path><path d="M4.16434 12.15695C4.16434 11.8532 4.41058 11.60695 4.71434 11.60695L9.42862 11.60695C9.73238 11.60695 9.97862 11.8532 9.97862 12.15695C9.97862 12.4607 9.73238 12.70695 9.42862 12.70695L4.71434 12.70695C4.41058 12.70695 4.16434 12.4607 4.16434 12.15695z" fill="currentColor"></path><path d="M4.16434 10.775C4.16434 10.4712 4.41058 10.225 4.71434 10.225L9.42862 10.225C9.73238 10.225 9.97862 10.4712 9.97862 10.775C9.97862 11.07875 9.73238 11.325 9.42862 11.325L4.71434 11.325C4.41058 11.325 4.16434 11.07875 4.16434 10.775z" fill="currentColor"></path><path d="M4.16434 13.53805C4.16434 13.23425 4.41058 12.98805 4.71434 12.98805L9.42862 12.98805C9.73238 12.98805 9.97862 13.23425 9.97862 13.53805C9.97862 13.8418 9.73238 14.08805 9.42862 14.08805L4.71434 14.08805C4.41058 14.08805 4.16434 13.8418 4.16434 13.53805z" fill="currentColor"></path><path d="M3.23218 15.0498C3.23218 14.70465 3.512 14.4248 3.85718 14.4248L10.2857 14.4248C10.63095 14.4248 10.9107 14.70465 10.9107 15.0498C10.9107 15.39495 10.63095 15.6748 10.2857 15.6748L3.85718 15.6748C3.512 15.6748 3.23218 15.39495 3.23218 15.0498z" fill="currentColor"></path><path d="M6.26189 9.63104C5.89353 9.53896 5.66957 9.16569 5.76166 8.79733L6.19023 7.08304C6.28232 6.71468 6.65559 6.49072 7.02395 6.58282C7.3923 6.6749 7.61626 7.04817 7.52418 7.41653L7.09561 9.13082C7.00351 9.49918 6.63025 9.72313 6.26189 9.63104z" fill="currentColor"></path><path d="M10.17505 18.7498C10.17505 19.75765 10.99215 20.5748 12.00005 20.5748C13.00795 20.5748 13.82505 19.75765 13.82505 18.7498L15.32505 18.7498C15.32505 20.5861 13.8364 22.0748 12.00005 22.0748C10.1637 22.0748 8.67505 20.5861 8.67505 18.7498L10.17505 18.7498z" fill="currentColor"></path><path d="M7.45541 4.54169C8.71343 3.57501 10.2906 2.99951 12.00005 2.99951C13.70955 2.99951 15.2867 3.57501 16.54475 4.54169C16.87685 4.78861 16.9459 5.25803 16.69905 5.59017C16.4521 5.92231 15.9827 5.9914 15.65055 5.74448C14.64175 4.96405 13.3762 4.49951 12.00005 4.49951C10.62395 4.49951 9.3584 4.96405 8.34958 5.74448C8.01744 5.9914 7.54802 5.92231 7.3011 5.59017C7.05419 5.25803 7.12327 4.78861 7.45541 4.54169zM3.6788 16.6395C4.08115 16.5735 4.46081 16.84615 4.5268 17.2485C4.52413 17.4955 4.7012 17.71215 4.9768 17.73205C6.78173 17.86235 9.31913 17.9995 12.00005 17.9995C14.68095 17.9995 17.2184 17.86235 19.02335 17.73205C19.29895 17.71215 19.476 17.4955 19.47335 17.2485C19.5393 16.84615 19.91895 16.5735 20.32135 16.6395C20.72365 16.70545 20.99635 17.08515 20.93035 17.48745C20.84805 18.3493 20.1685 19.15325 19.13135 19.22815C17.30405 19.3601 14.72845 19.4995 12.00005 19.4995C9.27165 19.4995 6.69608 19.3601 4.86878 19.22815C3.83163 19.15325 3.15205 18.3493 3.06978 17.48745C3.00379 17.08515 3.27646 16.70545 3.6788 16.6395z" fill="currentColor"></path></svg>