<svg xmlns="http://www.w3.org/2000/svg" xmlns:xlink="http://www.w3.org/1999/xlink" viewBox="0 0 24 24" width="24" height="24" style="width: 24px; height: 24px;"><path d="M8.5 8.47247C7.93252 8.47247 7.4725 8.93249 7.4725 9.49997C7.4725 10.06746 7.93252 10.52745 8.5 10.52745C9.06747 10.52745 9.5275 10.06746 9.5275 9.49997C9.5275 8.93249 9.06747 8.47247 8.5 8.47247zM6.0275 9.49997C6.0275 8.13444 7.13448 7.02746 8.5 7.02746C9.86552 7.02746 10.9725 8.13444 10.9725 9.49997C10.9725 10.86545 9.86552 11.97245 8.5 11.97245C7.13448 11.97245 6.0275 10.86545 6.0275 9.49997z" fill="currentColor"></path><path d="M12 4.99756C9.48178 4.99756 7.283 5.12566 5.73089 5.25153C4.65221 5.339 3.81611 6.16303 3.72 7.23205C3.60607 8.49931 3.5 10.1705 3.5 11.9976C3.5 13.82465 3.60607 15.4958 3.72 16.7631C3.81611 17.8321 4.65221 18.65615 5.73089 18.7436C7.283 18.8695 9.48178 18.9976 12 18.9976C14.5185 18.9976 16.7174 18.8694 18.2696 18.74355C19.3481 18.6561 20.184 17.8323 20.2801 16.76355C20.394 15.49685 20.5 13.82595 20.5 11.9976C20.5 10.16915 20.394 8.49828 20.2801 7.23156C20.184 6.16281 19.3481 5.33903 18.2696 5.25156C16.7174 5.12569 14.5185 4.99756 12 4.99756zM5.60965 3.75644C7.19232 3.6281 9.43258 3.49756 12 3.49756C14.5677 3.49756 16.8081 3.62812 18.3908 3.75647C20.1881 3.90224 21.6118 5.2923 21.7741 7.09724C21.8909 8.39641 22 10.11355 22 11.9976C22 13.88155 21.8909 15.5987 21.7741 16.8979C21.6118 18.7028 20.1881 20.0929 18.3908 20.23865C16.8081 20.367 14.5677 20.4976 12 20.4976C9.43258 20.4976 7.19232 20.367 5.60965 20.2387C3.81206 20.0929 2.38831 18.7025 2.22603 16.8974C2.10918 15.5977 2 13.8803 2 11.9976C2 10.1148 2.10918 8.39738 2.22603 7.09774C2.38831 5.29263 3.81206 3.90221 5.60965 3.75644z" fill="currentColor"></path><path d="M15.8624 13.5532C15.4524 13.1431 14.78755 13.1431 14.37745 13.55315L12.3451 15.58555C11.4912 16.43945 10.1065 16.43915 9.25299 15.5847C8.91511 15.2465 8.36696 15.24635 8.02887 15.5844L6.5303 17.08275C6.23739 17.3756 5.76251 17.3756 5.46964 17.0827C5.17676 16.7898 5.17679 16.3149 5.4697 16.022L6.96829 14.52365C7.89238 13.59965 9.39064 13.6001 10.3142 14.5246C10.58205 14.7927 11.0165 14.79285 11.28445 14.5249L13.31675 12.4925C14.31265 11.4966 15.92735 11.49665 16.9232 12.49265L18.5304 14.1001C18.82325 14.393 18.8232 14.86785 18.53025 15.16075C18.23735 15.4536 17.7625 15.4536 17.4696 15.16065L15.8624 13.5532z" fill="currentColor"></path></svg>