<svg t="1716702761661" class="icon" viewBox="0 0 1024 1024" version="1.1" xmlns="http://www.w3.org/2000/svg" p-id="3169"
     width="16" height="16">
    <path d="M551.377169 522.950078V354.472363h-78.755336v168.477715c-23.480992 13.62672-39.416091 38.762399-39.416091 67.862144s15.935099 54.158577 39.416091 67.784299v50.386129h78.755336v-50.386129c23.478996-13.625722 39.416091-38.684555 39.416091-67.784299s-15.937095-54.235423-39.416091-67.862144"
          p-id="3170"></path>
    <path d="M857.001324 329.412532l86.299233-86.375082-83.60363-83.565705-86.301229 86.451927c-62.895087-47.76837-138.877973-78.909028-221.942681-86.376079V78.831184h39.339245V0H433.282589v78.831184h39.339244v80.717407C251.832842 179.487674 78.772302 364.749788 78.772302 590.812222c0 239.190153 193.999622 433.187778 433.265622 433.187778 239.187159 0 433.188776-193.997626 433.188776-433.187778 0-98.346116-33.180574-188.726179-88.225376-261.39969M512.037924 945.245662c-195.539539 0-354.510287-159.00967-354.510287-354.43344 0-195.499619 158.971746-354.472363 354.510287-354.472363 195.462693 0 354.509289 158.972744 354.509289 354.472363 0 195.423771-159.046596 354.433441-354.509289 354.43344"
          p-id="3171"></path>
</svg>