<svg xmlns="http://www.w3.org/2000/svg" xmlns:xlink="http://www.w3.org/1999/xlink" viewBox="0 0 24 24" width="24" height="24" style="width: 24px; height: 24px;"><path d="M10.125 2.21652C11.28525 1.54664 12.71475 1.54664 13.875 2.21652L19.5353 5.48447C20.69555 6.15434 21.4103 7.39232 21.4103 8.73206L21.4103 15.268C21.4103 16.6077 20.69555 17.84565 19.5353 18.51555L13.875 21.7835C12.71475 22.45335 11.28525 22.45335 10.125 21.7835L4.46475 18.51555C3.3045 17.84565 2.58975 16.6077 2.58975 15.268L2.58975 8.73206C2.58975 7.39232 3.3045 6.15434 4.46475 5.48447L10.125 2.21652zM13.125 3.51556C12.42885 3.11363 11.57115 3.11363 10.875 3.51556L5.21475 6.78351C4.5186 7.18543 4.08975 7.92822 4.08975 8.73206L4.08975 15.268C4.08975 16.0718 4.5186 16.81455 5.21475 17.2165L10.875 20.4845C11.57115 20.8864 12.42885 20.8864 13.125 20.4845L18.7853 17.2165C19.48145 16.81455 19.9103 16.0718 19.9103 15.268L19.9103 8.73206C19.9103 7.92822 19.48145 7.18543 18.7853 6.78351L13.125 3.51556z" fill="currentColor"></path><path d="M12 9.75C10.7574 9.75 9.75 10.7574 9.75 12C9.75 13.2426 10.7574 14.25 12 14.25C13.2426 14.25 14.25 13.2426 14.25 12C14.25 10.7574 13.2426 9.75 12 9.75zM8.25 12C8.25 9.92893 9.92893 8.25 12 8.25C14.07105 8.25 15.75 9.92893 15.75 12C15.75 14.07105 14.07105 15.75 12 15.75C9.92893 15.75 8.25 14.07105 8.25 12z" fill="currentColor"></path></svg>