<svg xmlns="http://www.w3.org/2000/svg" xmlns:xlink="http://www.w3.org/1999/xlink" viewBox="0 0 24 24" width="24" height="24" style="width: 24px; height: 24px;"><path d="M9.2504 14.2737C9.65164 14.1708 10.06032 14.41265 10.16322 14.81385C10.27045 15.2321 10.52235 15.5175 10.76145 15.5313C10.96715 15.54315 11.18695 15.34575 11.282 15.03025C11.37745 14.71335 11.6693 14.4965 12.0002 14.49655C12.33115 14.49655 12.6229 14.7135 12.7183 15.0304C12.8132 15.3458 13.0329 15.54315 13.23855 15.5313C13.47775 15.5175 13.72975 15.23205 13.83705 14.81375C13.94005 14.41255 14.3488 14.17075 14.74995 14.2737C15.1512 14.3767 15.39295 14.7854 15.29005 15.1866C15.0153 16.25705 14.259 16.9749 13.32485 17.0288C12.82845 17.05745 12.3647 16.8875 12.00005 16.5679C11.63535 16.8875 11.17155 17.05745 10.67515 17.0288C9.74097 16.9749 8.98473 16.257 8.71022 15.18645C8.60732 14.78525 8.84917 14.3766 9.2504 14.2737z" fill="currentColor"></path><path d="M6.39641 9.19816C6.64297 8.86531 7.11266 8.79536 7.4455 9.04192L10.00893 10.9407C10.2108 11.09025 10.3244 11.33095 10.3115 11.5819C10.29865 11.83275 10.16095 12.06055 9.94487 12.18865L7.38143 13.7077C7.02509 13.91885 6.56503 13.8012 6.35386 13.4448C6.14269 13.0885 6.26038 12.62845 6.61673 12.41725L8.20864 11.4739L6.55266 10.24725C6.21982 10.0007 6.14986 9.53101 6.39641 9.19816z" fill="currentColor"></path><path d="M17.6036 9.19816C17.35705 8.86531 16.88735 8.79536 16.5545 9.04192L13.99105 10.9407C13.7892 11.09025 13.6756 11.33095 13.6885 11.5819C13.7014 11.83275 13.839 12.06055 14.05515 12.18865L16.61855 13.7077C16.9749 13.91885 17.43495 13.8012 17.64615 13.4448C17.8573 13.0885 17.7396 12.62845 17.38325 12.41725L15.79135 11.4739L17.44735 10.24725C17.7802 10.0007 17.85015 9.53101 17.6036 9.19816z" fill="currentColor"></path><path d="M12 3.49805C7.30558 3.49805 3.5 7.30363 3.5 11.998C3.5 16.69245 7.30558 20.498 12 20.498C16.6944 20.498 20.5 16.69245 20.5 11.998C20.5 7.30363 16.6944 3.49805 12 3.49805zM2 11.998C2 6.4752 6.47715 1.99805 12 1.99805C17.52285 1.99805 22 6.4752 22 11.998C22 17.5209 17.52285 21.998 12 21.998C6.47715 21.998 2 17.5209 2 11.998z" fill="currentColor"></path></svg>