<svg t="1716702895118" class="icon" viewBox="0 0 1024 1024" version="1.1" xmlns="http://www.w3.org/2000/svg" p-id="6483"
     width="16" height="16">
    <path d="M512 128c-211.7 0-384 172.3-384 384s172.3 384 384 384 384-172.3 384-384-172.3-384-384-384z m0 717.4c-183.8 0-333.4-149.6-333.4-333.4S328.2 178.6 512 178.6 845.4 328.2 845.4 512 695.8 845.4 512 845.4z"
          p-id="6484"></path>
    <path d="M698.1 486.7H537.3V238.5c0-14-11.3-25.3-25.3-25.3s-25.3 11.3-25.3 25.3V512c0 14 11.3 25.3 25.3 25.3h186.1c14 0 25.3-11.3 25.3-25.3s-11.3-25.3-25.3-25.3z"
          p-id="6485"></path>
</svg>