<svg xmlns="http://www.w3.org/2000/svg" xmlns:xlink="http://www.w3.org/1999/xlink" viewBox="0 0 24 24" width="24" height="24" style="width: 24px; height: 24px;"><path d="M2 14.2511C2 12.8704 3.11929 11.7511 4.5 11.7511L5.5 11.7511C6.88071 11.7511 8 12.8704 8 14.2511L8 17.7511C8 19.1318 6.88071 20.2511 5.5 20.2511L4.5 20.2511C3.11929 20.2511 2 19.1318 2 17.7511L2 14.2511zM4.5 13.2511C3.94772 13.2511 3.5 13.6988 3.5 14.2511L3.5 17.7511C3.5 18.3034 3.94772 18.7511 4.5 18.7511L5.5 18.7511C6.05229 18.7511 6.5 18.3034 6.5 17.7511L6.5 14.2511C6.5 13.6988 6.05229 13.2511 5.5 13.2511L4.5 13.2511z" fill="currentColor"></path><path d="M9 5.75098C9 4.37027 10.11931 3.25098 11.5 3.25098L12.5 3.25098C13.8807 3.25098 15 4.37027 15 5.75098L15 17.751C15 19.1317 13.8807 20.251 12.5 20.251L11.5 20.251C10.11931 20.251 9 19.1317 9 17.751L9 5.75098zM11.5 4.75098C10.9477 4.75098 10.5 5.19869 10.5 5.75098L10.5 17.751C10.5 18.30325 10.9477 18.751 11.5 18.751L12.5 18.751C13.0523 18.751 13.5 18.30325 13.5 17.751L13.5 5.75098C13.5 5.19869 13.0523 4.75098 12.5 4.75098L11.5 4.75098z" fill="currentColor"></path><path d="M16 11.001C16 9.62027 17.1193 8.50098 18.5 8.50098L19.5 8.50098C20.8807 8.50098 22 9.62027 22 11.001L22 17.751C22 19.1317 20.8807 20.251 19.5 20.251L18.5 20.251C17.1193 20.251 16 19.1317 16 17.751L16 11.001zM18.5 10.00099C17.9477 10.00099 17.5 10.4487 17.5 11.001L17.5 17.751C17.5 18.30325 17.9477 18.751 18.5 18.751L19.5 18.751C20.0523 18.751 20.5 18.30325 20.5 17.751L20.5 11.001C20.5 10.4487 20.0523 10.00099 19.5 10.00099L18.5 10.00099z" fill="currentColor"></path></svg>