<svg t="1703996574981" class="icon" viewBox="0 0 1025 1024" version="1.1" xmlns="http://www.w3.org/2000/svg" p-id="18552" width="12" height="12"><path d="M0.032 374.463c0 35.456 12.192 62.496 36.032 78.208-14.464 8.192-35.776 48.703-35.776 84.48 1.44 59.104 58.624 102.912 144.96 102.912l228.929 0c-39.2 106.688-31.808 250.56 17.345 327.36 29.599 46.208 65.152 56.576 89.824 56.576 83.072 0 85.792-80.032 85.792-107.264 0-91.073 13.151-132.576 29.536-170.848 12.992-24.768 92.512-106.24 173.76-106.24l152.256 0c58.785 0 101.408-49.216 101.312-119.264l-39.488-416.672c-4.768-64.192-36.288-103.071-99.52-103.072 0 0-31.487-0.256-55.072-0.256-12.032 0-23.264 0.096-29.921 0.256-19.489 0.64-35.552 13.12-49.761 23.616-10.048 7.392-18.016 13.824-25.248 13.824-3.231 0-21.696-10.592-44.352-20.224-23.104-9.759-59.743-17.856-94.784-17.857l-318.431 0c-106.752 0-158.016 40-158.016 106.688 0 19.711 4.545 31.392 15.488 46.656-42.849 10.272-80.864 37.216-80.864 83.68 0 17.248 8.128 44.96 19.232 52.32-20.96 5.344-63.296 42.721-63.232 85.12zM801.568 42.625c19.072-0.608 87.487 0 87.936 0 24.544 0 46.303 23.136 51.84 54.208l39.488 433.152c0 32.417-26.08 67.936-60.896 67.936l0-0.223-149.504-0.448c-2.56 0-5.088 0.32-7.616 0.416l0-529.887c6.912-4.832 13.376-9.504 17.984-12.896 6.336-4.672 16.927-11.808 20.768-12.256zM103.36 317.696c0.064 0 5.76 0 5.793 0l-0.544-38.656c-4.639-1.76-21.76-6.912-21.792-40.512 0-36 47.296-50.464 87.136-50.464l-0.096 0 0.672-36.832c-16.224-3.616-22.048-17.792-22.016-40.448 0-39.616 32.192-68.16 115.808-68.16l329.761 0c15.776 0 47.807 9.184 66.271 18.112 17.408 8.416 45.312 24.16 54.944 29.376l0 514.56c-82.912 22.976-151.36 94.496-168.64 127.52-18.784 43.68-28.192 89.344-28.192 189.504 0 49.761-18.272 56.448-37.728 56.448-17.217 0-44.576-18.976-58.4-40.608-40.928-63.903-50.496-201.568 0.416-304.672l8.767-35.68-292.256 0.064c-49.76-2.72-99.776-23.072-99.776-59.776l0.352-11.488c-0.161-0.48 1.216-31.808 17.888-45.632 13.984-11.616 25.312-12 25.312-12l0.32-38.048c0 0-16.864-2.272-25.664-8.32-13.248-9.088-19.264-26.304-18.56-45.12 0.864-23.808 37.664-59.169 60.224-59.168z" fill="#272636" p-id="18553"></path></svg>
